<mxfile host="65bd71144e">
    <diagram id="rCXVtfarYAIZyLfnzVE2" name="Page-1">
        <mxGraphModel dx="2066" dy="779" grid="1" gridSize="10" guides="1" tooltips="1" connect="1" arrows="1" fold="1" page="1" pageScale="1" pageWidth="850" pageHeight="1100" math="0" shadow="0">
            <root>
                <mxCell id="0"/>
                <mxCell id="1" parent="0"/>
                <mxCell id="3" value="" style="rounded=0;whiteSpace=wrap;html=1;" parent="1" vertex="1">
                    <mxGeometry width="850" height="140" as="geometry"/>
                </mxCell>
                <mxCell id="4" value="" style="rounded=0;whiteSpace=wrap;html=1;fillColor=#000033;fontColor=#ffffff;strokeColor=#001DBC;" parent="1" vertex="1">
                    <mxGeometry width="170" height="140" as="geometry"/>
                </mxCell>
                <mxCell id="5" value="&lt;font style=&quot;font-size: 15px;&quot;&gt;OPC1&lt;/font&gt;" style="rounded=0;whiteSpace=wrap;html=1;fillColor=#000066;fontColor=#ffffff;strokeColor=#006EAF;" parent="1" vertex="1">
                    <mxGeometry x="170" y="70" width="170" height="70" as="geometry"/>
                </mxCell>
                <mxCell id="6" value="&lt;font style=&quot;font-size: 15px;&quot;&gt;OPC2&lt;/font&gt;" style="rounded=0;whiteSpace=wrap;html=1;fillColor=#000099;" parent="1" vertex="1">
                    <mxGeometry x="340" y="70" width="170" height="70" as="geometry"/>
                </mxCell>
                <mxCell id="7" value="&lt;font style=&quot;font-size: 15px;&quot;&gt;OPC3&lt;/font&gt;" style="rounded=0;whiteSpace=wrap;html=1;fillColor=#0000CC;" parent="1" vertex="1">
                    <mxGeometry x="510" y="70" width="170" height="70" as="geometry"/>
                </mxCell>
                <mxCell id="10" value="&lt;font style=&quot;font-size: 15px;&quot;&gt;OPC3&lt;/font&gt;" style="rounded=0;whiteSpace=wrap;html=1;fillColor=#0000FF;" parent="1" vertex="1">
                    <mxGeometry x="680" y="70" width="170" height="70" as="geometry"/>
                </mxCell>
                <mxCell id="20" value="" style="rounded=0;whiteSpace=wrap;html=1;fontSize=26;fillColor=#9999FF;" parent="1" vertex="1">
                    <mxGeometry y="140" width="850" height="880" as="geometry"/>
                </mxCell>
                <mxCell id="19" value="&lt;font style=&quot;font-size: 26px;&quot;&gt;LOGO&lt;/font&gt;" style="ellipse;whiteSpace=wrap;html=1;fontSize=15;fillColor=#6666FF;" parent="1" vertex="1">
                    <mxGeometry x="25" y="30" width="120" height="80" as="geometry"/>
                </mxCell>
                <mxCell id="28" value="&lt;b&gt;&lt;font style=&quot;font-size: 20px&quot;&gt;Card title&lt;/font&gt;&lt;/b&gt;&lt;br style=&quot;font-size: 14px&quot;&gt;&lt;br style=&quot;font-size: 14px&quot;&gt;Some quick example text to build on the card title and make up the bulk of the card's content." style="html=1;shadow=0;dashed=0;shape=mxgraph.bootstrap.rrect;rSize=5;strokeColor=#DFDFDF;html=1;whiteSpace=wrap;fillColor=#ffffff;fontColor=#000000;verticalAlign=bottom;align=left;spacing=20;spacingBottom=50;fontSize=14;" parent="1" vertex="1">
                    <mxGeometry x="11" y="193" width="270" height="310" as="geometry"/>
                </mxCell>
                <mxCell id="29" value="Image cap" style="html=1;shadow=0;dashed=0;shape=mxgraph.bootstrap.topButton;rSize=5;perimeter=none;whiteSpace=wrap;fillColor=#868E96;strokeColor=#DFDFDF;fontColor=#DEE2E6;resizeWidth=1;fontSize=18;" parent="28" vertex="1">
                    <mxGeometry width="270" height="180" relative="1" as="geometry"/>
                </mxCell>
                <mxCell id="30" value="Go somewhere" style="html=1;shadow=0;dashed=0;shape=mxgraph.bootstrap.rrect;rSize=5;perimeter=none;whiteSpace=wrap;fillColor=#0085FC;strokeColor=none;fontColor=#ffffff;resizeWidth=1;fontSize=14;" parent="28" vertex="1">
                    <mxGeometry y="1" width="129.60000000000002" height="40" relative="1" as="geometry">
                        <mxPoint x="20" y="-60" as="offset"/>
                    </mxGeometry>
                </mxCell>
                <mxCell id="31" value="&lt;b&gt;&lt;font style=&quot;font-size: 20px&quot;&gt;Card title&lt;/font&gt;&lt;/b&gt;&lt;br style=&quot;font-size: 14px&quot;&gt;&lt;br style=&quot;font-size: 14px&quot;&gt;Some quick example text to build on the card title and make up the bulk of the card's content." style="html=1;shadow=0;dashed=0;shape=mxgraph.bootstrap.rrect;rSize=5;strokeColor=#DFDFDF;html=1;whiteSpace=wrap;fillColor=#ffffff;fontColor=#000000;verticalAlign=bottom;align=left;spacing=20;spacingBottom=50;fontSize=14;" parent="1" vertex="1">
                    <mxGeometry x="290" y="195" width="270" height="310" as="geometry"/>
                </mxCell>
                <mxCell id="32" value="Image cap" style="html=1;shadow=0;dashed=0;shape=mxgraph.bootstrap.topButton;rSize=5;perimeter=none;whiteSpace=wrap;fillColor=#868E96;strokeColor=#DFDFDF;fontColor=#DEE2E6;resizeWidth=1;fontSize=18;" parent="31" vertex="1">
                    <mxGeometry width="270" height="180" relative="1" as="geometry"/>
                </mxCell>
                <mxCell id="33" value="Go somewhere" style="html=1;shadow=0;dashed=0;shape=mxgraph.bootstrap.rrect;rSize=5;perimeter=none;whiteSpace=wrap;fillColor=#0085FC;strokeColor=none;fontColor=#ffffff;resizeWidth=1;fontSize=14;" parent="31" vertex="1">
                    <mxGeometry y="1" width="129.60000000000002" height="40" relative="1" as="geometry">
                        <mxPoint x="20" y="-60" as="offset"/>
                    </mxGeometry>
                </mxCell>
                <mxCell id="34" value="&lt;b&gt;&lt;font style=&quot;font-size: 20px&quot;&gt;Card title&lt;/font&gt;&lt;/b&gt;&lt;br style=&quot;font-size: 14px&quot;&gt;&lt;br style=&quot;font-size: 14px&quot;&gt;Some quick example text to build on the card title and make up the bulk of the card's content." style="html=1;shadow=0;dashed=0;shape=mxgraph.bootstrap.rrect;rSize=5;strokeColor=#DFDFDF;html=1;whiteSpace=wrap;fillColor=#ffffff;fontColor=#000000;verticalAlign=bottom;align=left;spacing=20;spacingBottom=50;fontSize=14;" parent="1" vertex="1">
                    <mxGeometry x="570" y="196" width="270" height="310" as="geometry"/>
                </mxCell>
                <mxCell id="35" value="Image cap" style="html=1;shadow=0;dashed=0;shape=mxgraph.bootstrap.topButton;rSize=5;perimeter=none;whiteSpace=wrap;fillColor=#868E96;strokeColor=#DFDFDF;fontColor=#DEE2E6;resizeWidth=1;fontSize=18;" parent="34" vertex="1">
                    <mxGeometry width="270" height="180" relative="1" as="geometry"/>
                </mxCell>
                <mxCell id="36" value="Go somewhere" style="html=1;shadow=0;dashed=0;shape=mxgraph.bootstrap.rrect;rSize=5;perimeter=none;whiteSpace=wrap;fillColor=#0085FC;strokeColor=none;fontColor=#ffffff;resizeWidth=1;fontSize=14;" parent="34" vertex="1">
                    <mxGeometry y="1" width="129.60000000000002" height="40" relative="1" as="geometry">
                        <mxPoint x="20" y="-60" as="offset"/>
                    </mxGeometry>
                </mxCell>
                <mxCell id="42" value="" style="rounded=0;whiteSpace=wrap;html=1;fontSize=26;fillColor=#9999FF;" parent="1" vertex="1">
                    <mxGeometry x="170" width="680" height="70" as="geometry"/>
                </mxCell>
                <mxCell id="51" value="" style="html=1;shadow=0;dashed=0;shape=mxgraph.bootstrap.rrect;rSize=5;strokeColor=#DEE2E6;html=1;whiteSpace=wrap;fillColor=#ffffff;fontColor=#0085FC;fontSize=14;" parent="1" vertex="1">
                    <mxGeometry x="318" y="845" width="220" height="30" as="geometry"/>
                </mxCell>
                <mxCell id="52" value="Previous" style="strokeColor=inherit;fillColor=inherit;gradientColor=inherit;fontColor=inherit;html=1;shadow=0;dashed=0;shape=mxgraph.bootstrap.leftButton;rSize=5;perimeter=none;whiteSpace=wrap;resizeHeight=1;fontSize=14;" parent="51" vertex="1">
                    <mxGeometry width="70" height="30" relative="1" as="geometry"/>
                </mxCell>
                <mxCell id="53" value="1" style="strokeColor=inherit;fillColor=inherit;gradientColor=inherit;fontColor=inherit;html=1;shadow=0;dashed=0;perimeter=none;whiteSpace=wrap;resizeHeight=1;fontSize=14;" parent="51" vertex="1">
                    <mxGeometry width="30" height="30" relative="1" as="geometry">
                        <mxPoint x="70" as="offset"/>
                    </mxGeometry>
                </mxCell>
                <mxCell id="54" value="2" style="strokeColor=inherit;fillColor=inherit;gradientColor=inherit;fontColor=inherit;html=1;shadow=0;dashed=0;perimeter=none;whiteSpace=wrap;resizeHeight=1;fontSize=14;" parent="51" vertex="1">
                    <mxGeometry width="30" height="30" relative="1" as="geometry">
                        <mxPoint x="100" as="offset"/>
                    </mxGeometry>
                </mxCell>
                <mxCell id="55" value="3" style="strokeColor=inherit;fillColor=inherit;gradientColor=inherit;fontColor=inherit;html=1;shadow=0;dashed=0;perimeter=none;whiteSpace=wrap;resizeHeight=1;fontSize=14;" parent="51" vertex="1">
                    <mxGeometry width="30" height="30" relative="1" as="geometry">
                        <mxPoint x="130" as="offset"/>
                    </mxGeometry>
                </mxCell>
                <mxCell id="56" value="Next" style="strokeColor=inherit;fillColor=inherit;gradientColor=inherit;fontColor=inherit;html=1;shadow=0;dashed=0;shape=mxgraph.bootstrap.rightButton;rSize=5;perimeter=none;whiteSpace=wrap;resizeHeight=1;fontSize=14;" parent="51" vertex="1">
                    <mxGeometry x="1" width="60" height="30" relative="1" as="geometry">
                        <mxPoint x="-60" as="offset"/>
                    </mxGeometry>
                </mxCell>
                <mxCell id="107" value="" style="edgeStyle=none;html=1;fontSize=26;" parent="1" target="19" edge="1">
                    <mxGeometry relative="1" as="geometry">
                        <mxPoint x="173.99999999999977" y="55.2507830403556" as="sourcePoint"/>
                    </mxGeometry>
                </mxCell>
                <mxCell id="69" value="&lt;b&gt;&lt;font style=&quot;font-size: 20px&quot;&gt;Card title&lt;/font&gt;&lt;/b&gt;&lt;br style=&quot;font-size: 14px&quot;&gt;&lt;br style=&quot;font-size: 14px&quot;&gt;Some quick example text to build on the card title and make up the bulk of the card's content." style="html=1;shadow=0;dashed=0;shape=mxgraph.bootstrap.rrect;rSize=5;strokeColor=#DFDFDF;html=1;whiteSpace=wrap;fillColor=#ffffff;fontColor=#000000;verticalAlign=bottom;align=left;spacing=20;spacingBottom=50;fontSize=14;" parent="1" vertex="1">
                    <mxGeometry x="11" y="518" width="270" height="310" as="geometry"/>
                </mxCell>
                <mxCell id="70" value="Image cap" style="html=1;shadow=0;dashed=0;shape=mxgraph.bootstrap.topButton;rSize=5;perimeter=none;whiteSpace=wrap;fillColor=#868E96;strokeColor=#DFDFDF;fontColor=#DEE2E6;resizeWidth=1;fontSize=18;" parent="69" vertex="1">
                    <mxGeometry width="270" height="180" relative="1" as="geometry"/>
                </mxCell>
                <mxCell id="71" value="Go somewhere" style="html=1;shadow=0;dashed=0;shape=mxgraph.bootstrap.rrect;rSize=5;perimeter=none;whiteSpace=wrap;fillColor=#0085FC;strokeColor=none;fontColor=#ffffff;resizeWidth=1;fontSize=14;" parent="69" vertex="1">
                    <mxGeometry y="1" width="129.60000000000002" height="40" relative="1" as="geometry">
                        <mxPoint x="20" y="-60" as="offset"/>
                    </mxGeometry>
                </mxCell>
                <mxCell id="72" value="&lt;b&gt;&lt;font style=&quot;font-size: 20px&quot;&gt;Card title&lt;/font&gt;&lt;/b&gt;&lt;br style=&quot;font-size: 14px&quot;&gt;&lt;br style=&quot;font-size: 14px&quot;&gt;Some quick example text to build on the card title and make up the bulk of the card's content." style="html=1;shadow=0;dashed=0;shape=mxgraph.bootstrap.rrect;rSize=5;strokeColor=#DFDFDF;html=1;whiteSpace=wrap;fillColor=#ffffff;fontColor=#000000;verticalAlign=bottom;align=left;spacing=20;spacingBottom=50;fontSize=14;" parent="1" vertex="1">
                    <mxGeometry x="291" y="519" width="270" height="310" as="geometry"/>
                </mxCell>
                <mxCell id="73" value="Image cap" style="html=1;shadow=0;dashed=0;shape=mxgraph.bootstrap.topButton;rSize=5;perimeter=none;whiteSpace=wrap;fillColor=#868E96;strokeColor=#DFDFDF;fontColor=#DEE2E6;resizeWidth=1;fontSize=18;" parent="72" vertex="1">
                    <mxGeometry width="270" height="180" relative="1" as="geometry">
                        <mxPoint x="-2" as="offset"/>
                    </mxGeometry>
                </mxCell>
                <mxCell id="74" value="Go somewhere" style="html=1;shadow=0;dashed=0;shape=mxgraph.bootstrap.rrect;rSize=5;perimeter=none;whiteSpace=wrap;fillColor=#0085FC;strokeColor=none;fontColor=#ffffff;resizeWidth=1;fontSize=14;" parent="72" vertex="1">
                    <mxGeometry y="1" width="129.60000000000002" height="40" relative="1" as="geometry">
                        <mxPoint x="20" y="-60" as="offset"/>
                    </mxGeometry>
                </mxCell>
                <mxCell id="75" value="&lt;b&gt;&lt;font style=&quot;font-size: 20px&quot;&gt;Card title&lt;/font&gt;&lt;/b&gt;&lt;br style=&quot;font-size: 14px&quot;&gt;&lt;br style=&quot;font-size: 14px&quot;&gt;Some quick example text to build on the card title and make up the bulk of the card's content." style="html=1;shadow=0;dashed=0;shape=mxgraph.bootstrap.rrect;rSize=5;strokeColor=#DFDFDF;html=1;whiteSpace=wrap;fillColor=#ffffff;fontColor=#000000;verticalAlign=bottom;align=left;spacing=20;spacingBottom=50;fontSize=14;" parent="1" vertex="1">
                    <mxGeometry x="570" y="521" width="270" height="310" as="geometry"/>
                </mxCell>
                <mxCell id="76" value="Image cap" style="html=1;shadow=0;dashed=0;shape=mxgraph.bootstrap.topButton;rSize=5;perimeter=none;whiteSpace=wrap;fillColor=#868E96;strokeColor=#DFDFDF;fontColor=#DEE2E6;resizeWidth=1;fontSize=18;" parent="75" vertex="1">
                    <mxGeometry width="270" height="180" relative="1" as="geometry"/>
                </mxCell>
                <mxCell id="77" value="Go somewhere" style="html=1;shadow=0;dashed=0;shape=mxgraph.bootstrap.rrect;rSize=5;perimeter=none;whiteSpace=wrap;fillColor=#0085FC;strokeColor=none;fontColor=#ffffff;resizeWidth=1;fontSize=14;" parent="75" vertex="1">
                    <mxGeometry y="1" width="129.60000000000002" height="40" relative="1" as="geometry">
                        <mxPoint x="20" y="-60" as="offset"/>
                    </mxGeometry>
                </mxCell>
                <mxCell id="79" value="" style="rounded=0;whiteSpace=wrap;html=1;fontSize=26;fillColor=#6666FF;" parent="1" vertex="1">
                    <mxGeometry x="-1" y="890" width="850" height="150" as="geometry"/>
                </mxCell>
                <mxCell id="99" value="Jane Doe" style="html=1;shadow=0;dashed=0;shape=mxgraph.bootstrap.rrect;rSize=5;fillColor=#ffffff;strokeColor=#999999;align=left;spacing=15;fontSize=14;fontColor=#6C767D;" parent="1" vertex="1">
                    <mxGeometry x="210" y="17" width="216" height="40" as="geometry"/>
                </mxCell>
                <mxCell id="100" value="Username" style="html=1;shadow=0;dashed=0;shape=mxgraph.bootstrap.rrect;rSize=5;fillColor=#ffffff;strokeColor=#999999;align=left;spacingLeft=50;fontSize=14;fontColor=#6C767D;" parent="1" vertex="1">
                    <mxGeometry x="459" y="17" width="220" height="40" as="geometry"/>
                </mxCell>
                <mxCell id="103" value="Submit" style="html=1;shadow=0;dashed=0;shape=mxgraph.bootstrap.rrect;rSize=5;fillColor=#0085FC;strokeColor=none;align=center;spacing=15;fontSize=14;fontColor=#ffffff;" parent="1" vertex="1">
                    <mxGeometry x="717" y="23" width="90" height="32" as="geometry"/>
                </mxCell>
                <mxCell id="112" value="&lt;p style=&quot;font-size: 11px;&quot;&gt;&lt;b style=&quot;&quot;&gt;&lt;font color=&quot;#000033&quot; style=&quot;font-size: 11px;&quot;&gt;DATOS DE CONTACTO&lt;/font&gt;&lt;/b&gt;&lt;/p&gt;&lt;p style=&quot;font-size: 11px;&quot;&gt;&lt;font color=&quot;#000033&quot; style=&quot;font-size: 11px;&quot;&gt;&lt;br&gt;                Pº Canalejas, 139-159 - 37001 - Salamanca&lt;br&gt;&lt;br&gt;                &lt;b style=&quot;&quot;&gt;Teléfono&lt;/b&gt;: &lt;a style=&quot;&quot; href=&quot;tel:923267961&quot;&gt;923 26 79 61&lt;/a&gt; | &lt;b style=&quot;&quot;&gt;Fax:&lt;/b&gt; &lt;a style=&quot;&quot; href=&quot;tel:923270454&quot;&gt;923 27 04 54&lt;/a&gt;&lt;br&gt;&lt;br&gt;                &lt;b style=&quot;&quot;&gt;Email&lt;/b&gt;: &lt;a href=&quot;mailto:info@calasanzsalamanca.es&quot; style=&quot;&quot;&gt;info@calasanzsalamanca.es&lt;/a&gt;&lt;/font&gt;&lt;/p&gt;" style="rounded=0;whiteSpace=wrap;html=1;fillColor=#CCCCFF;fontColor=#ffffff;strokeColor=#001DBC;" parent="1" vertex="1">
                    <mxGeometry x="601" y="894" width="240" height="143" as="geometry"/>
                </mxCell>
                <mxCell id="114" value="&lt;p style=&quot;font-size: 10px;&quot;&gt;&lt;b style=&quot;&quot;&gt;&lt;font color=&quot;#ccccff&quot; style=&quot;font-size: 10px;&quot;&gt;&amp;nbsp;MENÚ PRINCIPAL&lt;/font&gt;&lt;/b&gt;&lt;/p&gt;&lt;ul style=&quot;line-height: 22px; padding-inline-start: 25px !important; font-size: 10px;&quot;&gt;&lt;li style=&quot;&quot;&gt;&lt;a href=&quot;https://www.calasanzsalamanca.es/etapas-educativas/&quot; style=&quot;&quot;&gt;&lt;font color=&quot;#ccccff&quot; style=&quot;font-size: 10px;&quot;&gt;ETAPAS EDUCATIVAS&lt;/font&gt;&lt;/a&gt;&lt;/li&gt;&lt;li style=&quot;&quot;&gt;&lt;a href=&quot;https://www.calasanzsalamanca.es/internado/&quot; style=&quot;&quot;&gt;&lt;font color=&quot;#ccccff&quot; style=&quot;font-size: 10px;&quot;&gt;INTERNADO&lt;/font&gt;&lt;/a&gt;&lt;/li&gt;&lt;li style=&quot;&quot;&gt;&lt;a href=&quot;https://www.calasanzsalamanca.es/actividades-extraescolares/&quot; style=&quot;&quot;&gt;&lt;font color=&quot;#ccccff&quot; style=&quot;font-size: 10px;&quot;&gt;ACTIVIDADES EXTRAESCOLARES&lt;/font&gt;&lt;/a&gt;&lt;/li&gt;&lt;li style=&quot;&quot;&gt;&lt;a href=&quot;https://www.calasanzsalamanca.es/servicios/&quot; style=&quot;&quot;&gt;&lt;font color=&quot;#ccccff&quot; style=&quot;font-size: 10px;&quot;&gt;SERVICIOS&lt;/font&gt;&lt;/a&gt;&lt;/li&gt;&lt;/ul&gt;" style="rounded=0;whiteSpace=wrap;html=1;fontSize=11;fontColor=#000033;fillColor=#000033;" parent="1" vertex="1">
                    <mxGeometry x="6" y="897" width="270" height="140" as="geometry"/>
                </mxCell>
                <mxCell id="115" value="&lt;p style=&quot;font-size: 9px;&quot;&gt;&lt;b style=&quot;&quot;&gt;&lt;font style=&quot;font-size: 9px;&quot;&gt;MÁS INFORMACIÓN&lt;/font&gt;&lt;/b&gt;&lt;/p&gt;&lt;ul style=&quot;line-height: 22px; padding-inline-start: 25px !important; font-size: 9px;&quot;&gt;&lt;li style=&quot;&quot;&gt;&lt;a target=&quot;_blank&quot; href=&quot;http://www.escolapiosbetania.org/&quot; style=&quot;&quot;&gt;&lt;font color=&quot;#ccccff&quot; style=&quot;font-size: 9px;&quot;&gt;ESCUELAS PIAS&lt;/font&gt;&lt;/a&gt;&lt;/li&gt;&lt;li style=&quot;&quot;&gt;&lt;a target=&quot;_blank&quot; href=&quot;http://www.itakaescolapios.org/&quot; style=&quot;&quot;&gt;&lt;font color=&quot;#ccccff&quot; style=&quot;font-size: 9px;&quot;&gt;FUNDACIÓN ITAKA&lt;/font&gt;&lt;/a&gt;&lt;/li&gt;&lt;li style=&quot;&quot;&gt;&lt;a target=&quot;_blank&quot; href=&quot;http://escolappios.es/&quot; style=&quot;&quot;&gt;&lt;font color=&quot;#ccccff&quot; style=&quot;font-size: 9px;&quot;&gt;ESCOLAPPIOS&lt;/font&gt;&lt;/a&gt;&lt;/li&gt;&lt;/ul&gt;" style="rounded=0;whiteSpace=wrap;html=1;fontSize=10;fontColor=#CCCCFF;fillColor=#3333FF;" parent="1" vertex="1">
                    <mxGeometry x="284" y="897" width="309" height="133" as="geometry"/>
                </mxCell>
            </root>
        </mxGraphModel>
    </diagram>
</mxfile>